<svg width="34" height="19" viewBox="0 0 34 19" fill="none" xmlns="http://www.w3.org/2000/svg">
<path d="M0.0406345 9.71783C-0.115202 10.2477 0.187991 10.8035 0.717834 10.9594C1.24768 11.1152 1.80353 10.812 1.95937 10.2822L0.0406345 9.71783ZM32.0753 10.3807C32.2856 10.8914 32.8701 11.135 33.3807 10.9247C33.8914 10.7144 34.135 10.1299 33.9247 9.61925L32.0753 10.3807ZM5.93633 9.64887C5.74241 9.13175 5.166 8.86975 4.64888 9.06367C4.13176 9.25759 3.86975 9.834 4.06367 10.3511L5.93633 9.64887ZM29.8854 10.4648C30.1421 9.97584 29.9538 9.37132 29.4648 9.1146C28.9758 8.85788 28.3713 9.04617 28.1146 9.53516L29.8854 10.4648ZM18 15C18 14.4477 17.5523 14 17 14C16.4477 14 16 14.4477 16 15H18ZM16 18C16 18.5523 16.4477 19 17 19C17.5523 19 18 18.5523 18 18H16ZM11.4487 14.8162C11.6233 14.2923 11.3402 13.726 10.8162 13.5513C10.2923 13.3767 9.72596 13.6598 9.55132 14.1838L11.4487 14.8162ZM9.05132 15.6838C8.87667 16.2077 9.15983 16.774 9.68377 16.9487C10.2077 17.1233 10.774 16.8402 10.9487 16.3162L9.05132 15.6838ZM23.9487 14.1838C23.774 13.6598 23.2077 13.3767 22.6838 13.5513C22.1598 13.726 21.8767 14.2923 22.0513 14.8162L23.9487 14.1838ZM22.5513 16.3162C22.726 16.8402 23.2923 17.1233 23.8162 16.9487C24.3402 16.774 24.6233 16.2077 24.4487 15.6838L22.5513 16.3162ZM6.70711 12.2071C7.09763 11.8166 7.09763 11.1834 6.70711 10.7929C6.31658 10.4024 5.68342 10.4024 5.29289 10.7929L6.70711 12.2071ZM4.29289 11.7929C3.90237 12.1834 3.90237 12.8166 4.29289 13.2071C4.68342 13.5976 5.31658 13.5976 5.70711 13.2071L4.29289 11.7929ZM27.7929 13.7071C28.1834 14.0976 28.8166 14.0976 29.2071 13.7071C29.5976 13.3166 29.5976 12.6834 29.2071 12.2929L27.7929 13.7071ZM1 10C1.95937 10.2822 1.95918 10.2828 1.959 10.2834C1.95896 10.2835 1.95879 10.2841 1.9587 10.2844C1.95851 10.285 1.95836 10.2855 1.95825 10.2859C1.95803 10.2867 1.95795 10.2869 1.95803 10.2867C1.95818 10.2862 1.95893 10.2837 1.96033 10.2793C1.96312 10.2706 1.96844 10.2542 1.97654 10.2308C1.99275 10.1838 2.02002 10.1085 2.06021 10.0088C2.14064 9.80944 2.27244 9.51357 2.47033 9.15313C2.86624 8.43201 3.52426 7.45674 4.56162 6.47701C6.61598 4.53679 10.2412 2.5 16.5 2.5V0.5C9.75879 0.5 5.63402 2.71321 3.18838 5.02299C1.97574 6.16826 1.19626 7.31799 0.717171 8.19062C0.477555 8.62706 0.312483 8.99525 0.205415 9.26069C0.151854 9.39348 0.112716 9.50078 0.0859558 9.57832C0.0725726 9.6171 0.0622752 9.64847 0.0548089 9.67189C0.0510755 9.6836 0.0480488 9.69333 0.0456973 9.70101C0.0445215 9.70485 0.0435144 9.70817 0.0426719 9.71098C0.0422507 9.71239 0.0418706 9.71366 0.0415312 9.7148C0.0413618 9.71537 0.0411369 9.71613 0.0410526 9.71642C0.0408385 9.71714 0.0406345 9.71783 1 10ZM16.5 2.5C22.7602 2.5 26.6563 4.53901 28.9774 6.51194C30.1459 7.50519 30.9298 8.49441 31.4179 9.22658C31.6619 9.59249 31.8313 9.8933 31.9374 10.0968C31.9904 10.1985 32.0274 10.2758 32.05 10.3245C32.0612 10.3489 32.0689 10.3661 32.073 10.3756C32.0751 10.3804 32.0763 10.3832 32.0767 10.3841C32.0769 10.3846 32.0769 10.3845 32.0766 10.3839C32.0765 10.3837 32.0764 10.3833 32.0761 10.3827C32.076 10.3825 32.0758 10.382 32.0758 10.3818C32.0756 10.3813 32.0753 10.3807 33 10C33.9247 9.61925 33.9244 9.61863 33.9242 9.61797C33.924 9.61771 33.9238 9.61702 33.9235 9.61649C33.9231 9.61545 33.9226 9.61427 33.9221 9.61296C33.921 9.61034 33.9197 9.6072 33.9181 9.60355C33.915 9.59626 33.911 9.58693 33.9061 9.57562C33.8962 9.553 33.8826 9.52248 33.8651 9.48458C33.83 9.40879 33.7792 9.30342 33.7111 9.17271C33.5749 8.91139 33.3694 8.54813 33.0821 8.11717C32.5077 7.25559 31.6041 6.11981 30.2726 4.98806C27.5937 2.71099 23.2398 0.5 16.5 0.5V2.5ZM5 10C4.06367 10.3511 4.06397 10.3519 4.06428 10.3527C4.06439 10.353 4.06471 10.3539 4.06494 10.3545C4.06539 10.3557 4.06588 10.357 4.0664 10.3583C4.06743 10.361 4.0686 10.364 4.06989 10.3674C4.07248 10.374 4.0756 10.3818 4.07927 10.3909C4.08662 10.4089 4.09617 10.4317 4.10812 10.4589C4.13203 10.5132 4.16557 10.5852 4.21032 10.6722C4.29981 10.8462 4.43422 11.0806 4.62608 11.3547C5.01046 11.9038 5.62327 12.6089 6.56102 13.3036C8.44741 14.7009 11.5714 16 16.625 16V14C11.9286 14 9.24009 12.7991 7.75148 11.6964C7.00173 11.1411 6.53642 10.5962 6.26454 10.2078C6.12828 10.0131 6.04004 9.85693 5.9889 9.75749C5.96333 9.70778 5.94707 9.67232 5.93875 9.65341C5.93459 9.64396 5.93243 9.63866 5.93208 9.6378C5.9319 9.63738 5.93219 9.63806 5.9329 9.63989C5.93326 9.64081 5.93372 9.64201 5.9343 9.64351C5.93458 9.64425 5.9349 9.64508 5.93523 9.64597C5.9354 9.64642 5.93568 9.64714 5.93576 9.64737C5.93604 9.64811 5.93633 9.64887 5 10ZM16.625 16C21.6806 16 24.9707 14.7006 27.0235 13.332C28.045 12.651 28.7463 11.962 29.1994 11.4289C29.4258 11.1626 29.59 10.9355 29.7011 10.7682C29.7567 10.6845 29.7991 10.6157 29.8294 10.5643C29.8446 10.5386 29.8567 10.5173 29.866 10.5006C29.8706 10.4922 29.8746 10.4851 29.8778 10.4791C29.8794 10.4761 29.8808 10.4734 29.8821 10.471C29.8827 10.4699 29.8833 10.4687 29.8839 10.4677C29.8842 10.4672 29.8845 10.4665 29.8847 10.4662C29.885 10.4655 29.8854 10.4648 29 10C28.1146 9.53516 28.1149 9.53452 28.1153 9.5339C28.1154 9.53372 28.1157 9.53311 28.1159 9.53274C28.1163 9.53201 28.1166 9.53136 28.1169 9.53077C28.1175 9.5296 28.118 9.52873 28.1183 9.52815C28.119 9.52698 28.119 9.52698 28.1183 9.5281C28.1171 9.53034 28.1133 9.53707 28.1069 9.548C28.094 9.56986 28.0704 9.60848 28.0352 9.66152C27.9647 9.7676 27.8476 9.93116 27.6756 10.1336C27.3318 10.538 26.7675 11.099 25.914 11.6679C24.2168 12.7994 21.3194 14 16.625 14V16ZM16 15V18H18V15H16ZM9.55132 14.1838L9.05132 15.6838L10.9487 16.3162L11.4487 14.8162L9.55132 14.1838ZM22.0513 14.8162L22.5513 16.3162L24.4487 15.6838L23.9487 14.1838L22.0513 14.8162ZM5.29289 10.7929L4.29289 11.7929L5.70711 13.2071L6.70711 12.2071L5.29289 10.7929ZM26.7929 12.7071L27.7929 13.7071L29.2071 12.2929L28.2071 11.2929L26.7929 12.7071Z" fill="black"/>
</svg>
