<svg width="34" height="22" viewBox="0 0 34 22" fill="none" xmlns="http://www.w3.org/2000/svg">
<path d="M1 10C1 10 3.5 1.5 16.5 1.5C29.5 1.5 33 10 33 10M6.5 8.86823C4.538 10.4108 4 12 4 12C4 12 6.03125 18 16.5938 18C18.7576 18 20.5975 17.7482 22.1554 17.3477M6.5 8.86823C8.35034 7.41341 11.4672 6 16.5938 6C18.7373 6 20.563 6.24711 22.1116 6.64105M6.5 8.86823L5.5 8M22.1116 6.64105C28.1934 8.18821 30 12 30 12C30 12 29.2293 13.6261 27 15.1853M22.1116 6.64105C25.8776 11.4575 24.3197 15.1774 22.1554 17.3477M22.1554 17.3477C24.2432 16.8111 25.8244 16.0075 27 15.1853M22.1554 17.3477C22.1039 17.3994 22.0521 17.4501 22 17.5M27 15.1853L28 16M12 6.5C10 8.66667 7.2 13.9 12 17.5M11.5 6.5L10 4.5M22.5 6.5L24 5M17 6V3.5M27.6574 9.30819L28.5 8.5M6 15L5 16M17 18.5V20.5M22.5 17.5L23.5 18.5M11 17L10 19M19 12C19 13.1046 18.1046 14 17 14C15.8954 14 15 13.1046 15 12C15 10.8954 15.8954 10 17 10C18.1046 10 19 10.8954 19 12Z" stroke="black" stroke-width="2" stroke-linecap="round" stroke-linejoin="round"/>
</svg>
