<svg width="154" height="29" viewBox="0 0 154 29" fill="none" xmlns="http://www.w3.org/2000/svg">
<path d="M17.833 14.7798C17.833 17.0812 17.1038 19.0807 15.6455 20.7783C14.1188 22.5671 12.2218 23.4614 9.95459 23.4614C8.54183 23.4614 7.30566 23.0228 6.24609 22.1455C5.76758 21.7012 5.28906 21.2511 4.81055 20.7954C4.74219 20.8296 4.69661 20.9207 4.67383 21.0688C4.66243 21.1372 4.65674 21.7752 4.65674 22.9829L4.63965 27.8022C4.63965 28.1668 4.50863 28.3491 4.24658 28.3491C2.49202 28.3491 1.45524 28.3263 1.13623 28.2808C0.874186 28.2466 0.743164 28.0985 0.743164 27.8364C0.743164 26.3781 0.754557 24.1906 0.777344 21.2739C0.80013 18.3573 0.811523 16.1698 0.811523 14.7114C0.811523 12.034 0.640625 9.52181 0.298828 7.1748C0.276042 7.03809 0.264648 6.94694 0.264648 6.90137C0.264648 6.77604 0.321615 6.69629 0.435547 6.66211C0.86849 6.63932 1.50081 6.57666 2.33252 6.47412C3.44906 6.26904 4.07568 6.1665 4.2124 6.1665C4.40609 6.1665 4.53141 6.5083 4.58838 7.19189C4.62256 7.64762 4.65104 8.09766 4.67383 8.54199C4.67383 8.63314 4.70801 8.72428 4.77637 8.81543C4.85612 8.76986 4.94727 8.6901 5.0498 8.57617C6.64486 6.94694 8.257 6.13232 9.88623 6.13232C12.1421 6.13232 14.0448 7.0153 15.5942 8.78125C17.0868 10.4788 17.833 12.4784 17.833 14.7798ZM13.834 14.7114C13.834 13.3442 13.4067 12.1423 12.5522 11.1055C11.6522 10.0003 10.5299 9.44775 9.18555 9.44775C7.86393 9.44775 6.78158 10.0174 5.93848 11.1567C5.16374 12.1821 4.77637 13.3784 4.77637 14.7456C4.77637 16.1356 5.17513 17.3433 5.97266 18.3687C6.84993 19.4738 7.96647 20.0264 9.32227 20.0264C10.6211 20.0264 11.7148 19.451 12.6035 18.3003C13.4238 17.2293 13.834 16.033 13.834 14.7114ZM24.9424 2.56055C24.9424 3.96191 24.1619 4.6626 22.6011 4.6626C21.0174 4.6626 20.2256 3.96191 20.2256 2.56055C20.2256 1.93392 20.4705 1.41553 20.9604 1.00537C21.4162 0.618001 21.9631 0.424316 22.6011 0.424316C23.2391 0.424316 23.786 0.623698 24.2417 1.02246C24.7088 1.42122 24.9424 1.93392 24.9424 2.56055ZM24.8228 7.19189C24.8228 8.06917 24.7658 9.39648 24.6519 11.1738C24.5493 12.9398 24.498 14.2671 24.498 15.1558C24.498 15.9875 24.5151 17.235 24.5493 18.8984C24.5835 20.5505 24.6006 21.7866 24.6006 22.6069C24.6006 22.8462 24.498 22.9658 24.293 22.9658H20.9604C20.7212 22.9658 20.6016 22.7323 20.6016 22.2651C20.6016 21.479 20.6187 20.2998 20.6528 18.7275C20.6984 17.1439 20.7212 15.9533 20.7212 15.1558C20.7212 14.2671 20.6528 12.9341 20.5161 11.1567C20.3908 9.37939 20.3281 8.04639 20.3281 7.15771C20.3281 6.96403 20.4478 6.86719 20.687 6.86719C20.8921 6.86719 21.2054 6.89567 21.627 6.95264C22.0599 7.0096 22.3846 7.03809 22.6011 7.03809C22.8175 7.03809 23.1366 7.0096 23.5581 6.95264C23.991 6.89567 24.3158 6.86719 24.5322 6.86719C24.7259 6.86719 24.8228 6.97542 24.8228 7.19189ZM44.0488 7.49951C44.0488 8.33122 44.0146 9.59017 43.9463 11.2764C43.8779 12.9512 43.8438 14.2101 43.8438 15.0532C43.8438 15.8849 43.8665 17.1325 43.9121 18.7959C43.9691 20.4479 43.9976 21.6898 43.9976 22.5215C43.9976 22.7493 43.8893 22.8975 43.6729 22.9658C43.5817 22.9886 42.4253 23 40.2036 23C40.0669 23 39.9814 22.5728 39.9473 21.7183C39.9245 20.8638 39.8618 20.4365 39.7593 20.4365C39.7023 20.4365 39.6169 20.4878 39.5029 20.5903C37.6003 22.2424 35.7204 23.0684 33.8633 23.0684C31.3454 23.0684 29.682 22.1569 28.873 20.334C28.3717 19.2061 28.1211 17.1781 28.1211 14.25C28.1211 11.6068 28.3319 9.368 28.7534 7.53369C28.856 7.08936 29.0439 6.86719 29.3174 6.86719C29.6478 6.86719 30.1434 6.87288 30.8042 6.88428C31.465 6.89567 31.9606 6.90137 32.291 6.90137C32.5189 6.90137 32.6328 7.02669 32.6328 7.27734C32.6328 7.72168 32.5588 8.46224 32.4106 9.49902C32.2511 10.6042 32.1657 11.3846 32.1543 11.8403C32.1201 12.5239 32.103 13.2759 32.103 14.0962C32.103 16.09 32.2454 17.4287 32.5303 18.1123C33.0202 19.3428 34.1082 19.958 35.7944 19.958C36.5122 19.958 37.361 19.6048 38.3408 18.8984C39.3776 18.1579 39.9131 17.4458 39.9473 16.7622C40.0042 15.9077 40.0327 12.8999 40.0327 7.73877C40.0327 7.1805 40.2663 6.90137 40.7334 6.90137H43.5532C43.8836 6.90137 44.0488 7.10075 44.0488 7.49951ZM64.625 14.7798C64.625 17.0812 63.8958 19.0807 62.4375 20.7783C60.9108 22.5671 59.0138 23.4614 56.7466 23.4614C55.3338 23.4614 54.0977 23.0228 53.0381 22.1455C52.5596 21.7012 52.0811 21.2511 51.6025 20.7954C51.5342 20.8296 51.4886 20.9207 51.4658 21.0688C51.4544 21.1372 51.4487 21.7752 51.4487 22.9829L51.4316 27.8022C51.4316 28.1668 51.3006 28.3491 51.0386 28.3491C49.284 28.3491 48.2472 28.3263 47.9282 28.2808C47.6662 28.2466 47.5352 28.0985 47.5352 27.8364C47.5352 26.3781 47.5465 24.1906 47.5693 21.2739C47.5921 18.3573 47.6035 16.1698 47.6035 14.7114C47.6035 12.034 47.4326 9.52181 47.0908 7.1748C47.068 7.03809 47.0566 6.94694 47.0566 6.90137C47.0566 6.77604 47.1136 6.69629 47.2275 6.66211C47.6605 6.63932 48.2928 6.57666 49.1245 6.47412C50.241 6.26904 50.8677 6.1665 51.0044 6.1665C51.1981 6.1665 51.3234 6.5083 51.3804 7.19189C51.4146 7.64762 51.443 8.09766 51.4658 8.54199C51.4658 8.63314 51.5 8.72428 51.5684 8.81543C51.6481 8.76986 51.7393 8.6901 51.8418 8.57617C53.4368 6.94694 55.049 6.13232 56.6782 6.13232C58.9341 6.13232 60.8368 7.0153 62.3862 8.78125C63.8787 10.4788 64.625 12.4784 64.625 14.7798ZM60.626 14.7114C60.626 13.3442 60.1987 12.1423 59.3442 11.1055C58.4442 10.0003 57.3219 9.44775 55.9775 9.44775C54.6559 9.44775 53.5736 10.0174 52.7305 11.1567C51.9557 12.1821 51.5684 13.3784 51.5684 14.7456C51.5684 16.1356 51.9671 17.3433 52.7646 18.3687C53.6419 19.4738 54.7585 20.0264 56.1143 20.0264C57.4131 20.0264 58.5068 19.451 59.3955 18.3003C60.2158 17.2293 60.626 16.033 60.626 14.7114ZM71.7344 2.56055C71.7344 3.96191 70.9539 4.6626 69.3931 4.6626C67.8094 4.6626 67.0176 3.96191 67.0176 2.56055C67.0176 1.93392 67.2625 1.41553 67.7524 1.00537C68.2082 0.618001 68.755 0.424316 69.3931 0.424316C70.0311 0.424316 70.578 0.623698 71.0337 1.02246C71.5008 1.42122 71.7344 1.93392 71.7344 2.56055ZM71.6147 7.19189C71.6147 8.06917 71.5578 9.39648 71.4438 11.1738C71.3413 12.9398 71.29 14.2671 71.29 15.1558C71.29 15.9875 71.3071 17.235 71.3413 18.8984C71.3755 20.5505 71.3926 21.7866 71.3926 22.6069C71.3926 22.8462 71.29 22.9658 71.085 22.9658H67.7524C67.5132 22.9658 67.3936 22.7323 67.3936 22.2651C67.3936 21.479 67.4106 20.2998 67.4448 18.7275C67.4904 17.1439 67.5132 15.9533 67.5132 15.1558C67.5132 14.2671 67.4448 12.9341 67.3081 11.1567C67.1828 9.37939 67.1201 8.04639 67.1201 7.15771C67.1201 6.96403 67.2397 6.86719 67.479 6.86719C67.6841 6.86719 67.9974 6.89567 68.4189 6.95264C68.8519 7.0096 69.1766 7.03809 69.3931 7.03809C69.6095 7.03809 69.9285 7.0096 70.3501 6.95264C70.783 6.89567 71.1077 6.86719 71.3242 6.86719C71.5179 6.86719 71.6147 6.97542 71.6147 7.19189ZM90.8408 7.49951C90.8408 8.33122 90.8066 9.59017 90.7383 11.2764C90.6699 12.9512 90.6357 14.2101 90.6357 15.0532C90.6357 15.8849 90.6585 17.1325 90.7041 18.7959C90.7611 20.4479 90.7896 21.6898 90.7896 22.5215C90.7896 22.7493 90.6813 22.8975 90.4648 22.9658C90.3737 22.9886 89.2173 23 86.9956 23C86.8589 23 86.7734 22.5728 86.7393 21.7183C86.7165 20.8638 86.6538 20.4365 86.5513 20.4365C86.4943 20.4365 86.4089 20.4878 86.2949 20.5903C84.3923 22.2424 82.5124 23.0684 80.6553 23.0684C78.1374 23.0684 76.474 22.1569 75.665 20.334C75.1637 19.2061 74.9131 17.1781 74.9131 14.25C74.9131 11.6068 75.1239 9.368 75.5454 7.53369C75.6479 7.08936 75.8359 6.86719 76.1094 6.86719C76.4398 6.86719 76.9354 6.87288 77.5962 6.88428C78.257 6.89567 78.7526 6.90137 79.083 6.90137C79.3109 6.90137 79.4248 7.02669 79.4248 7.27734C79.4248 7.72168 79.3507 8.46224 79.2026 9.49902C79.0431 10.6042 78.9577 11.3846 78.9463 11.8403C78.9121 12.5239 78.895 13.2759 78.895 14.0962C78.895 16.09 79.0374 17.4287 79.3223 18.1123C79.8122 19.3428 80.9002 19.958 82.5864 19.958C83.3042 19.958 84.153 19.6048 85.1328 18.8984C86.1696 18.1579 86.7051 17.4458 86.7393 16.7622C86.7962 15.9077 86.8247 12.8999 86.8247 7.73877C86.8247 7.1805 87.0583 6.90137 87.5254 6.90137H90.3452C90.6756 6.90137 90.8408 7.10075 90.8408 7.49951ZM117.262 10.7466C117.262 12.8885 117.142 14.2329 116.903 14.7798C116.584 15.5317 115.741 17.0299 114.374 19.2744C112.892 21.7012 111.998 22.9544 111.69 23.0342C111.599 23.057 111.144 23.0684 110.323 23.0684C109.765 23.0684 109.44 23.057 109.349 23.0342C108.996 22.943 107.64 20.9834 105.282 17.1553C104.632 18.2262 103.977 19.3029 103.316 20.3853C102.245 22.0715 101.562 22.9544 101.266 23.0342C101.174 23.057 100.799 23.0684 100.138 23.0684C99.4655 23.0684 99.0838 23.057 98.9927 23.0342C98.6395 22.9544 97.7451 21.7126 96.3096 19.3086C94.9538 17.0413 94.1335 15.5317 93.8486 14.7798C93.5866 14.0962 93.4556 12.7518 93.4556 10.7466C93.4556 9.07178 93.5125 7.92676 93.6265 7.31152C93.6834 7.06087 93.8258 6.93555 94.0537 6.93555C94.3955 6.93555 94.9082 6.94694 95.5918 6.96973C96.2754 6.99251 96.7881 7.00391 97.1299 7.00391C97.3464 7.00391 97.4546 7.1805 97.4546 7.53369C97.4546 7.78434 97.4432 8.16602 97.4204 8.67871C97.3976 9.18001 97.3862 9.55599 97.3862 9.80664C97.3862 11.7891 97.4432 13.1904 97.5571 14.0107C97.6597 14.7285 98.554 16.2324 100.24 18.5225C100.445 18.7959 100.565 18.9326 100.599 18.9326C100.633 18.9326 100.736 18.8073 100.907 18.5566C102.388 16.4033 103.231 14.9336 103.436 14.1475C103.573 13.6006 103.641 12.3758 103.641 10.4731C103.641 10.0858 103.618 9.51042 103.573 8.74707C103.527 7.98372 103.504 7.41406 103.504 7.03809C103.504 6.78743 103.607 6.66211 103.812 6.66211H107.076C107.258 6.66211 107.35 6.81022 107.35 7.10645C107.35 7.47103 107.333 8.0236 107.298 8.76416C107.264 9.49333 107.247 10.0402 107.247 10.4048C107.247 12.4214 107.281 13.5892 107.35 13.9082C107.418 14.2158 107.953 15.1102 108.956 16.5913C109.959 18.061 110.534 18.7959 110.682 18.7959C110.716 18.7959 110.819 18.6592 110.99 18.3857C112.437 16.1868 113.217 14.7171 113.331 13.9766C113.434 13.3613 113.485 12.3188 113.485 10.8491C113.485 10.4162 113.451 9.79525 113.382 8.98633C113.314 8.16602 113.28 7.57926 113.28 7.22607C113.28 7.05518 113.394 6.96973 113.622 6.96973C113.963 6.96973 114.47 6.95833 115.143 6.93555C115.815 6.91276 116.322 6.90137 116.664 6.90137C116.914 6.90137 117.068 7.0153 117.125 7.24316C117.216 7.6875 117.262 8.85531 117.262 10.7466ZM134.334 13.8228C134.334 14.6659 133.97 15.2298 133.241 15.5146C132.751 15.6969 129.225 16.033 122.662 16.5229C122.81 17.5256 123.363 18.38 124.32 19.0864C125.231 19.7586 126.211 20.0947 127.259 20.0947C129.059 20.0947 130.711 19.5137 132.215 18.3516C132.398 18.2035 132.58 18.0553 132.762 17.9072C132.853 17.9072 132.91 17.9186 132.933 17.9414C132.967 17.9642 133.184 18.363 133.583 19.1377C133.981 19.901 134.181 20.3112 134.181 20.3682C134.181 20.4365 134.09 20.5675 133.907 20.7612C132.232 22.5386 130.085 23.4272 127.464 23.4272C124.821 23.4272 122.713 22.6411 121.141 21.0688C119.569 19.4852 118.783 17.3774 118.783 14.7456C118.783 12.3986 119.535 10.3535 121.039 8.61035C122.622 6.79883 124.565 5.89307 126.866 5.89307C129.008 5.89307 130.797 6.6792 132.232 8.25146C133.634 9.77816 134.334 11.6353 134.334 13.8228ZM130.267 12.7803C130.267 11.8346 129.891 10.9972 129.139 10.2681C128.399 9.5389 127.561 9.17432 126.627 9.17432C125.579 9.17432 124.645 9.59587 123.824 10.439C123.015 11.2821 122.611 12.2277 122.611 13.2759C122.611 13.5151 122.816 13.6348 123.226 13.6348C124.912 13.6348 126.929 13.4639 129.276 13.1221C129.937 13.0309 130.267 12.917 130.267 12.7803ZM146.52 6.95264C146.52 8.20589 146.434 9.34521 146.263 10.3706C146.229 10.6326 146.115 10.7637 145.921 10.7637C145.682 10.7637 145.318 10.7409 144.828 10.6953C144.349 10.6383 143.985 10.6099 143.734 10.6099C142.298 10.6099 141.381 11.0143 140.982 11.8232C140.743 12.3132 140.624 13.3328 140.624 14.8823V16.7622C140.624 17.4002 140.646 18.3687 140.692 19.6675C140.749 20.9663 140.777 21.9347 140.777 22.5728C140.777 22.8804 140.646 23.0342 140.384 23.0342C140.031 23.0342 139.496 23.0285 138.778 23.0171C138.06 23.0057 137.525 23 137.171 23C136.909 23 136.778 22.8576 136.778 22.5728C136.778 21.6499 136.79 20.2599 136.812 18.4028C136.847 16.5457 136.864 15.1501 136.864 14.2158C136.864 11.4017 136.602 9.14014 136.078 7.43115C136.055 7.34001 136.043 7.27165 136.043 7.22607C136.043 7.08936 136.118 6.99251 136.266 6.93555C136.687 6.88997 137.28 6.82161 138.043 6.73047C139.273 6.5026 139.843 6.38867 139.752 6.38867C139.934 6.38867 140.054 6.72477 140.111 7.39697C140.168 8.06917 140.27 8.40527 140.418 8.40527C140.441 8.40527 140.47 8.39388 140.504 8.37109C140.971 8.07487 141.438 7.77865 141.905 7.48242C142.418 7.1748 142.942 6.94694 143.478 6.79883C143.922 6.66211 144.492 6.59375 145.187 6.59375C146.075 6.59375 146.52 6.71338 146.52 6.95264ZM153.031 20.4878C153.031 21.2397 152.774 21.9006 152.262 22.4702C151.76 23.0285 151.139 23.3076 150.399 23.3076C149.658 23.3076 149.037 23.0171 148.536 22.436C148.058 21.8892 147.818 21.2397 147.818 20.4878C147.818 19.7244 148.063 19.075 148.553 18.5396C149.043 17.9927 149.658 17.7192 150.399 17.7192C151.151 17.7192 151.778 17.9927 152.279 18.5396C152.78 19.0864 153.031 19.7358 153.031 20.4878Z" fill="url(#paint0_linear)"/>
<defs>
<linearGradient id="paint0_linear" x1="83" y1="-2" x2="83" y2="23" gradientUnits="userSpaceOnUse">
<stop stop-color="#00D1FF"/>
<stop offset="1" stop-color="#FF00C7"/>
</linearGradient>
</defs>
</svg>
