<svg width="36" height="36" viewBox="0 0 36 36" fill="none" xmlns="http://www.w3.org/2000/svg">
<path d="M32.9414 35.0627C33.5283 35.6473 34.478 35.6455 35.0627 35.0586C35.6473 34.4717 35.6455 33.522 35.0586 32.9373L32.9414 35.0627ZM25.1424 23.0586C24.5555 22.474 23.6057 22.4758 23.0211 23.0627C22.4364 23.6496 22.4382 24.5993 23.0251 25.184L25.1424 23.0586ZM26.5989 15C26.5989 21.3459 21.4335 26.5 15.0495 26.5V29.5C23.0796 29.5 29.5989 23.0135 29.5989 15H26.5989ZM15.0495 26.5C8.6655 26.5 3.5 21.3459 3.5 15H0.5C0.5 23.0135 7.0194 29.5 15.0495 29.5V26.5ZM3.5 15C3.5 8.65409 8.6655 3.5 15.0495 3.5V0.5C7.0194 0.5 0.5 6.9865 0.5 15H3.5ZM15.0495 3.5C21.4335 3.5 26.5989 8.65409 26.5989 15H29.5989C29.5989 6.9865 23.0796 0.5 15.0495 0.5V3.5ZM35.0586 32.9373L25.1424 23.0586L23.0251 25.184L32.9414 35.0627L35.0586 32.9373Z" fill="black"/>
</svg>
