<svg width="30" height="25" viewBox="0 0 30 25" fill="none" xmlns="http://www.w3.org/2000/svg">
<path d="M8 24L7.04333 24.2912C7.17148 24.7122 7.55986 25 8 25V24ZM22 24V25C22.4401 25 22.8285 24.7122 22.9567 24.2912L22 24ZM29 1L29.9567 1.29116C30.0489 0.98808 29.9921 0.659217 29.8035 0.404669C29.6149 0.15012 29.3168 0 29 0V1ZM1 1V0C0.683193 0 0.385125 0.15012 0.19652 0.404669C0.0079143 0.659217 -0.048916 0.98808 0.0433261 1.29116L1 1ZM11.7071 7.29289C11.3166 6.90237 10.6834 6.90237 10.2929 7.29289C9.90237 7.68342 9.90237 8.31658 10.2929 8.70711L11.7071 7.29289ZM18.2929 16.7071C18.6834 17.0976 19.3166 17.0976 19.7071 16.7071C20.0976 16.3166 20.0976 15.6834 19.7071 15.2929L18.2929 16.7071ZM10.2929 15.2929C9.90237 15.6834 9.90237 16.3166 10.2929 16.7071C10.6834 17.0976 11.3166 17.0976 11.7071 16.7071L10.2929 15.2929ZM19.7071 8.70711C20.0976 8.31658 20.0976 7.68342 19.7071 7.29289C19.3166 6.90237 18.6834 6.90237 18.2929 7.29289L19.7071 8.70711ZM8 25H22V23H8V25ZM22.9567 24.2912L29.9567 1.29116L28.0433 0.708838L21.0433 23.7088L22.9567 24.2912ZM29 0H1V2H29V0ZM0.0433261 1.29116L7.04333 24.2912L8.95667 23.7088L1.95667 0.708838L0.0433261 1.29116ZM10.2929 8.70711L18.2929 16.7071L19.7071 15.2929L11.7071 7.29289L10.2929 8.70711ZM11.7071 16.7071L19.7071 8.70711L18.2929 7.29289L10.2929 15.2929L11.7071 16.7071Z" fill="black"/>
</svg>
